/* XPM */
static char * folder_xpm[] = {
"9 8 4 1",
" 	c None",
".	c #F8F8F8",
"+	c #000000",
"@	c #540099",
".........",
"..++.....",
".+@@+++..",
".+@@@@@+.",
".+@@@@@+.",
".+@@@@@+.",
".+++++++.",
"........."};
